<svg width="18" height="18" viewBox="0 0 18 18" fill="none" xmlns="http://www.w3.org/2000/svg">
<path d="M6.92049 0.902805C8.04553 -0.300935 9.95447 -0.300935 11.0795 0.902805C11.6406 1.50318 12.4338 1.83174 13.2551 1.80399C14.9018 1.74834 16.2517 3.09816 16.196 4.74485C16.1683 5.56615 16.4968 6.35937 17.0972 6.92049C18.3009 8.04553 18.3009 9.95447 17.0972 11.0795C16.4968 11.6406 16.1683 12.4338 16.196 13.2551C16.2517 14.9018 14.9018 16.2517 13.2551 16.196C12.4338 16.1683 11.6406 16.4968 11.0795 17.0972C9.95447 18.3009 8.04553 18.3009 6.92049 17.0972C6.35937 16.4968 5.56615 16.1683 4.74485 16.196C3.09816 16.2517 1.74834 14.9018 1.80399 13.2551C1.83174 12.4338 1.50318 11.6406 0.902805 11.0795C-0.300935 9.95447 -0.300935 8.04553 0.902805 6.92049C1.50318 6.35937 1.83174 5.56615 1.80399 4.74485C1.74834 3.09816 3.09816 1.74834 4.74485 1.80399C5.56615 1.83174 6.35937 1.50318 6.92049 0.902805Z" fill="white"/>
<path d="M3.91388 8.63764L8.38578 12.102L13.5824 5.3942" stroke="#AD00FF" stroke-width="2"/>
</svg>
