<svg width="11" height="37" viewBox="0 0 11 37" fill="none" xmlns="http://www.w3.org/2000/svg">
<mask id="mask0_534_6" style="mask-type:alpha" maskUnits="userSpaceOnUse" x="0" y="0" width="11" height="37">
<rect width="11" height="37" fill="#C4C4C4"/>
</mask>
<g mask="url(#mask0_534_6)">
<rect x="-31" width="95" height="37" fill="#C4C4C4" fill-opacity="0.01"/>
<path d="M-11.4736 30.9006C-13.2028 30.9006 -14.8023 30.587 -16.2721 29.9598C-17.7419 29.3325 -19.0388 28.4565 -20.1628 27.3318C-21.2652 26.2071 -22.1298 24.8878 -22.7566 23.3737C-23.3618 21.8597 -23.6644 20.2051 -23.6644 18.4099C-23.6644 16.6147 -23.3618 14.9601 -22.7566 13.446C-22.1514 11.9104 -21.3084 10.591 -20.2276 9.48794C-19.1253 8.36323 -17.85 7.49807 -16.4018 6.89246C-14.932 6.26522 -13.3217 5.9516 -11.5708 5.9516C-9.84163 5.9516 -8.29616 6.24359 -6.93442 6.82757C-5.55105 7.41156 -4.38385 8.1902 -3.43278 9.1635C-2.48173 10.1152 -1.80086 11.1642 -1.39017 12.3105L-5.31329 14.1922C-5.76721 12.9378 -6.54534 11.9212 -7.64771 11.1426C-8.72846 10.3639 -10.0362 9.97459 -11.5708 9.97459C-13.0839 9.97459 -14.424 10.3315 -15.5912 11.0452C-16.7368 11.759 -17.6338 12.7431 -18.2823 13.9976C-18.9091 15.2521 -19.2225 16.7228 -19.2225 18.4099C-19.2225 20.0969 -18.8983 21.5785 -18.2499 22.8546C-17.5798 24.1091 -16.6612 25.0932 -15.494 25.807C-14.3267 26.5208 -12.9866 26.8776 -11.4736 26.8776C-10.2631 26.8776 -9.13915 26.6397 -8.10163 26.1639C-7.06411 25.688 -6.23193 25.0067 -5.60509 24.1199C-4.95664 23.2115 -4.63242 22.1409 -4.63242 20.908V20.7783H-11.5708V17.0473H-0.54718V28.8177C-0.54718 29.7531 -1.30439 30.5113 -2.23846 30.5113H-4.53514V28.1275C-5.28397 28.8962 -6.14859 29.507 -7.12896 29.9598C-8.51232 30.587 -9.96051 30.9006 -11.4736 30.9006Z" fill="#222222"/>
<path d="M0.894009 30.5113V12.8621H4.88197V15.3463C5.27807 14.4775 5.80763 13.8441 6.47067 13.446C7.3569 12.9269 8.41602 12.6674 9.64809 12.6674H10.6856V16.4308H9.16175C7.95131 16.4308 6.97864 16.8093 6.24373 17.5664C5.50882 18.3017 5.14136 19.3399 5.14136 20.6809V28.8177C5.14136 29.7531 4.38416 30.5113 3.45009 30.5113H0.894009Z" fill="#222222"/>
<path fill-rule="evenodd" clip-rule="evenodd" d="M13.4548 30.2842C14.3627 30.6951 15.4326 30.9006 16.6647 30.9006C17.6373 30.9006 18.5236 30.7708 19.3233 30.5113C20.1231 30.2301 20.8364 29.8408 21.4632 29.3433C21.7149 29.1349 21.9527 28.9073 22.1765 28.6605V30.5113H24.5056C25.4397 30.5113 26.1969 29.7531 26.1969 28.8177V18.7668C26.1969 17.5123 25.8835 16.42 25.2566 15.49C24.6514 14.5383 23.7976 13.8029 22.6953 13.2838C21.5929 12.7431 20.3176 12.4727 18.8694 12.4727C17.6806 12.4727 16.5782 12.6674 15.5623 13.0567C14.5464 13.446 13.6602 13.9868 12.9037 14.6789C12.1687 15.3494 11.6284 16.1497 11.2825 17.0797L14.7517 18.7668C15.076 17.9665 15.5839 17.3284 16.2756 16.8526C16.9889 16.3551 17.7995 16.1064 18.7073 16.1064C19.68 16.1064 20.4581 16.3659 21.0417 16.885C21.6469 17.3825 21.9495 18.0098 21.9495 18.7668V19.338L16.6971 20.1943C15.3137 20.4106 14.1681 20.7783 13.2603 21.2974C12.3525 21.8165 11.6824 22.4653 11.2501 23.244C10.8178 24.001 10.6017 24.8661 10.6017 25.8394C10.6017 26.856 10.8502 27.7536 11.3474 28.5322C11.8445 29.2893 12.547 29.8732 13.4548 30.2842ZM21.9495 22.586L17.5077 23.3413C16.6647 23.4927 16.0378 23.7631 15.6272 24.1524C15.2165 24.5417 15.0111 25.05 15.0111 25.6772C15.0111 26.2828 15.2381 26.7695 15.692 27.1372C16.1675 27.4832 16.7511 27.6563 17.4428 27.6563C18.329 27.6563 19.1072 27.4724 19.7772 27.1047C20.4689 26.7154 20.9985 26.1855 21.3659 25.515C21.755 24.8445 21.9495 24.1091 21.9495 23.3088V22.586Z" fill="#222222"/>
<path fill-rule="evenodd" clip-rule="evenodd" d="M27.2892 37V12.8621H31.2772V14.9449C31.8305 14.2528 32.5222 13.6991 33.3522 13.2838C34.3897 12.7431 35.5894 12.4727 36.9511 12.4727C38.6155 12.4727 40.1177 12.8837 41.4578 13.7056C42.798 14.5275 43.8571 15.6306 44.6353 17.0148C45.435 18.3991 45.8349 19.9564 45.8349 21.6867C45.8349 23.3954 45.4458 24.9527 44.6677 26.3585C43.8895 27.7644 42.8304 28.8783 41.4903 29.7002C40.1501 30.5005 38.6263 30.9006 36.9187 30.9006C35.6434 30.9006 34.4654 30.6519 33.3846 30.1544C32.6703 29.8043 32.0543 29.3558 31.5366 28.8089V35.3064C31.5366 36.2418 30.7793 37 29.8453 37H27.2892ZM36.4324 27.0074C37.405 27.0074 38.2696 26.7803 39.0261 26.3261C39.7827 25.8719 40.3663 25.2446 40.777 24.4444C41.2093 23.6441 41.4254 22.7249 41.4254 21.6867C41.4254 20.6485 41.2093 19.7401 40.777 18.9614C40.3663 18.1612 39.7827 17.5339 39.0261 17.0797C38.2696 16.6039 37.405 16.3659 36.4324 16.3659C35.5029 16.3659 34.6599 16.5931 33.9034 17.0473C33.1685 17.5015 32.5849 18.1395 32.1526 18.9614C31.7419 19.7617 31.5366 20.6701 31.5366 21.6867C31.5366 22.7249 31.7419 23.6441 32.1526 24.4444C32.5849 25.2446 33.1685 25.8719 33.9034 26.3261C34.6599 26.7803 35.5029 27.0074 36.4324 27.0074Z" fill="#222222"/>
<path fill-rule="evenodd" clip-rule="evenodd" d="M50.9661 29.6678C52.3279 30.4897 53.9166 30.9006 55.7323 30.9006C56.9427 30.9006 58.0451 30.7168 59.0394 30.3491C60.0553 29.9814 60.9307 29.4731 61.6656 28.8242C62.4005 28.1754 62.9409 27.4292 63.2867 26.5856L59.8499 24.8986C59.4608 25.5907 58.9205 26.1422 58.2288 26.5532C57.5587 26.9641 56.7374 27.1696 55.7647 27.1696C54.792 27.1696 53.9274 26.9425 53.1709 26.4883C52.436 26.0341 51.874 25.396 51.4849 24.5741C51.2594 24.0566 51.1194 23.4942 51.0649 22.8871H63.773C63.8595 22.6492 63.9136 22.368 63.9352 22.0436C63.9784 21.7191 64 21.4055 64 21.1027C64 19.9131 63.8055 18.81 63.4164 17.7935C63.0273 16.7553 62.4653 15.836 61.7304 15.0358C60.9955 14.2355 60.0985 13.6083 59.0394 13.154C58.0018 12.6998 56.7914 12.4727 55.408 12.4727C53.7653 12.4727 52.2739 12.8729 50.9337 13.6731C49.6152 14.4734 48.5669 15.5657 47.7887 16.9499C47.0322 18.3126 46.654 19.8807 46.654 21.6542C46.654 23.3629 47.0322 24.9202 47.7887 26.3261C48.5453 27.732 49.6044 28.8459 50.9661 29.6678ZM51.1524 19.6427C51.2214 19.2703 51.3214 18.9242 51.4525 18.6045C51.8199 17.7394 52.3495 17.0905 53.0412 16.6579C53.7329 16.2037 54.5218 15.9766 55.408 15.9766C56.3375 15.9766 57.1264 16.2037 57.7749 16.6579C58.445 17.1121 58.9205 17.7286 59.2015 18.5072C59.3398 18.8631 59.4262 19.2416 59.4606 19.6427H51.1524Z" fill="#222222"/>
</g>
</svg>
