<svg width="19" height="37" viewBox="0 0 19 37" fill="none" xmlns="http://www.w3.org/2000/svg">
<mask id="mask0_534_19" style="mask-type:alpha" maskUnits="userSpaceOnUse" x="0" y="0" width="19" height="37">
<rect width="19" height="37" fill="#C4C4C4"/>
</mask>
<g mask="url(#mask0_534_19)">
<rect x="-77" width="95" height="37" fill="#C4C4C4" fill-opacity="0.01"/>
<path d="M-57.4736 30.9006C-59.2028 30.9006 -60.8023 30.587 -62.2721 29.9598C-63.7419 29.3325 -65.0388 28.4565 -66.1628 27.3318C-67.2652 26.2071 -68.1298 24.8878 -68.7566 23.3737C-69.3618 21.8597 -69.6644 20.2051 -69.6644 18.4099C-69.6644 16.6147 -69.3618 14.9601 -68.7566 13.446C-68.1514 11.9104 -67.3084 10.591 -66.2276 9.48794C-65.1253 8.36323 -63.85 7.49807 -62.4018 6.89246C-60.932 6.26522 -59.3217 5.9516 -57.5708 5.9516C-55.8416 5.9516 -54.2962 6.24359 -52.9344 6.82757C-51.5511 7.41156 -50.3838 8.1902 -49.4328 9.1635C-48.4817 10.1152 -47.8009 11.1642 -47.3902 12.3105L-51.3133 14.1922C-51.7672 12.9378 -52.5453 11.9212 -53.6477 11.1426C-54.7285 10.3639 -56.0362 9.97459 -57.5708 9.97459C-59.0839 9.97459 -60.424 10.3315 -61.5912 11.0452C-62.7368 11.759 -63.6338 12.7431 -64.2823 13.9976C-64.9091 15.2521 -65.2225 16.7228 -65.2225 18.4099C-65.2225 20.0969 -64.8983 21.5785 -64.2499 22.8546C-63.5798 24.1091 -62.6612 25.0932 -61.494 25.807C-60.3267 26.5208 -58.9866 26.8776 -57.4736 26.8776C-56.2631 26.8776 -55.1391 26.6397 -54.1016 26.1639C-53.0641 25.688 -52.2319 25.0067 -51.6051 24.1199C-50.9566 23.2115 -50.6324 22.1409 -50.6324 20.908V20.7783H-57.5708V17.0473H-46.5472V28.8177C-46.5472 29.7531 -47.3044 30.5113 -48.2385 30.5113H-50.5351V28.1275C-51.284 28.8962 -52.1486 29.507 -53.129 29.9598C-54.5123 30.587 -55.9605 30.9006 -57.4736 30.9006Z" fill="#222222"/>
<path d="M-45.106 30.5113V12.8621H-41.118V15.3463C-40.7219 14.4775 -40.1924 13.8441 -39.5293 13.446C-38.6431 12.9269 -37.584 12.6674 -36.3519 12.6674H-35.3144V16.4308H-36.8382C-38.0487 16.4308 -39.0214 16.8093 -39.7563 17.5664C-40.4912 18.3017 -40.8586 19.3399 -40.8586 20.6809V28.8177C-40.8586 29.7531 -41.6158 30.5113 -42.5499 30.5113H-45.106Z" fill="#222222"/>
<path fill-rule="evenodd" clip-rule="evenodd" d="M-32.5452 30.2842C-31.6373 30.6951 -30.5674 30.9006 -29.3353 30.9006C-28.3627 30.9006 -27.4764 30.7708 -26.6767 30.5113C-25.8769 30.2301 -25.1636 29.8408 -24.5368 29.3433C-24.2851 29.1349 -24.0473 28.9073 -23.8235 28.6605V30.5113H-21.4944C-20.5603 30.5113 -19.8031 29.7531 -19.8031 28.8177V18.7668C-19.8031 17.5123 -20.1165 16.42 -20.7434 15.49C-21.3486 14.5383 -22.2024 13.8029 -23.3047 13.2838C-24.4071 12.7431 -25.6824 12.4727 -27.1306 12.4727C-28.3194 12.4727 -29.4218 12.6674 -30.4377 13.0567C-31.4536 13.446 -32.3398 13.9868 -33.0963 14.6789C-33.8313 15.3494 -34.3716 16.1497 -34.7175 17.0797L-31.2483 18.7668C-30.924 17.9665 -30.4161 17.3284 -29.7244 16.8526C-29.0111 16.3551 -28.2005 16.1064 -27.2927 16.1064C-26.32 16.1064 -25.5419 16.3659 -24.9583 16.885C-24.3531 17.3825 -24.0505 18.0098 -24.0505 18.7668V19.338L-29.3029 20.1943C-30.6863 20.4106 -31.8319 20.7783 -32.7397 21.2974C-33.6475 21.8165 -34.3176 22.4653 -34.7499 23.244C-35.1822 24.001 -35.3983 24.8661 -35.3983 25.8394C-35.3983 26.856 -35.1498 27.7536 -34.6526 28.5322C-34.1555 29.2893 -33.453 29.8732 -32.5452 30.2842ZM-24.0505 22.586L-28.4923 23.3413C-29.3353 23.4927 -29.9622 23.7631 -30.3728 24.1524C-30.7835 24.5417 -30.9889 25.05 -30.9889 25.6772C-30.9889 26.2828 -30.7619 26.7695 -30.308 27.1372C-29.8325 27.4832 -29.2489 27.6563 -28.5572 27.6563C-27.671 27.6563 -26.8928 27.4724 -26.2228 27.1047C-25.5311 26.7154 -25.0015 26.1855 -24.6341 25.515C-24.245 24.8445 -24.0505 24.1091 -24.0505 23.3088V22.586Z" fill="#222222"/>
<path fill-rule="evenodd" clip-rule="evenodd" d="M-18.7108 37V12.8621H-14.7228V14.9449C-14.1695 14.2528 -13.4778 13.6991 -12.6478 13.2838C-11.6103 12.7431 -10.4106 12.4727 -9.04889 12.4727C-7.38452 12.4727 -5.88228 12.8837 -4.54215 13.7056C-3.20202 14.5275 -2.14289 15.6306 -1.36475 17.0148C-0.564993 18.3991 -0.165115 19.9564 -0.165115 21.6867C-0.165115 23.3954 -0.554177 24.9527 -1.33232 26.3585C-2.11047 27.7644 -3.1696 28.8783 -4.50973 29.7002C-5.84986 30.5005 -7.37373 30.9006 -9.08131 30.9006C-10.3566 30.9006 -11.5346 30.6519 -12.6154 30.1544C-13.3297 29.8043 -13.9457 29.3558 -14.4634 28.8089V35.3064C-14.4634 36.2418 -15.2207 37 -16.1547 37H-18.7108ZM-9.56764 27.0074C-8.59497 27.0074 -7.73037 26.7803 -6.97385 26.3261C-6.21732 25.8719 -5.63372 25.2446 -5.22303 24.4444C-4.79073 23.6441 -4.57459 22.7249 -4.57459 21.6867C-4.57459 20.6485 -4.79073 19.7401 -5.22303 18.9614C-5.63372 18.1612 -6.21732 17.5339 -6.97385 17.0797C-7.73037 16.6039 -8.59497 16.3659 -9.56764 16.3659C-10.4971 16.3659 -11.3401 16.5931 -12.0966 17.0473C-12.8315 17.5015 -13.4151 18.1395 -13.8474 18.9614C-14.2581 19.7617 -14.4634 20.6701 -14.4634 21.6867C-14.4634 22.7249 -14.2581 23.6441 -13.8474 24.4444C-13.4151 25.2446 -12.8315 25.8719 -12.0966 26.3261C-11.3401 26.7803 -10.4971 27.0074 -9.56764 27.0074Z" fill="#222222"/>
<path fill-rule="evenodd" clip-rule="evenodd" d="M4.96615 29.6678C6.32791 30.4897 7.9166 30.9006 9.73226 30.9006C10.9427 30.9006 12.0451 30.7168 13.0394 30.3491C14.0553 29.9814 14.9307 29.4731 15.6656 28.8242C16.4005 28.1754 16.9409 27.4292 17.2867 26.5856L13.8499 24.8986C13.4608 25.5907 12.9205 26.1422 12.2288 26.5532C11.5587 26.9641 10.7374 27.1696 9.76469 27.1696C8.79202 27.1696 7.92742 26.9425 7.17088 26.4883C6.43597 26.0341 5.87399 25.396 5.48491 24.5741C5.25944 24.0566 5.11944 23.4942 5.06487 22.8871H17.773C17.8595 22.6492 17.9136 22.368 17.9352 22.0436C17.9784 21.7191 18 21.4055 18 21.1027C18 19.9131 17.8055 18.81 17.4164 17.7935C17.0273 16.7553 16.4653 15.836 15.7304 15.0358C14.9955 14.2355 14.0985 13.6083 13.0394 13.154C12.0018 12.6998 10.7914 12.4727 9.40804 12.4727C7.7653 12.4727 6.27385 12.8729 4.93374 13.6731C3.61522 14.4734 2.56689 15.5657 1.78874 16.9499C1.03222 18.3126 0.653976 19.8807 0.653976 21.6542C0.653976 23.3629 1.03222 24.9202 1.78874 26.3261C2.54526 27.732 3.60441 28.8459 4.96615 29.6678ZM5.15244 19.6427C5.22142 19.2703 5.32143 18.9242 5.45249 18.6045C5.81995 17.7394 6.34952 17.0905 7.04119 16.6579C7.73288 16.2037 8.52182 15.9766 9.40804 15.9766C10.3375 15.9766 11.1264 16.2037 11.7749 16.6579C12.445 17.1121 12.9205 17.7286 13.2015 18.5072C13.3398 18.8631 13.4262 19.2416 13.4606 19.6427H5.15244Z" fill="#222222"/>
</g>
</svg>
