<svg width="31" height="37" viewBox="0 0 31 37" fill="none" xmlns="http://www.w3.org/2000/svg">
<mask id="mask0_532_61" style="mask-type:alpha" maskUnits="userSpaceOnUse" x="0" y="0" width="31" height="37">
<rect width="31" height="37" fill="#C4C4C4"/>
</mask>
<g mask="url(#mask0_532_61)">
<rect width="95" height="37" fill="#C4C4C4" fill-opacity="0.01"/>
<path d="M19.5264 30.9006C17.7972 30.9006 16.1977 30.587 14.7279 29.9598C13.2581 29.3325 11.9612 28.4565 10.8372 27.3318C9.73484 26.2071 8.87023 24.8878 8.2434 23.3737C7.63818 21.8597 7.33557 20.2051 7.33557 18.4099C7.33557 16.6147 7.63818 14.9601 8.2434 13.446C8.84863 11.9104 9.69161 10.591 10.7724 9.48794C11.8747 8.36323 13.15 7.49807 14.5982 6.89246C16.068 6.26522 17.6783 5.9516 19.4292 5.9516C21.1584 5.9516 22.7038 6.24359 24.0656 6.82757C25.4489 7.41156 26.6162 8.1902 27.5672 9.1635C28.5183 10.1152 29.1991 11.1642 29.6098 12.3105L25.6867 14.1922C25.2328 12.9378 24.4547 11.9212 23.3523 11.1426C22.2715 10.3639 20.9638 9.97459 19.4292 9.97459C17.9161 9.97459 16.576 10.3315 15.4088 11.0452C14.2632 11.759 13.3662 12.7431 12.7177 13.9976C12.0909 15.2521 11.7775 16.7228 11.7775 18.4099C11.7775 20.0969 12.1017 21.5785 12.7501 22.8546C13.4202 24.1091 14.3388 25.0932 15.506 25.807C16.6733 26.5208 18.0134 26.8776 19.5264 26.8776C20.7369 26.8776 21.8609 26.6397 22.8984 26.1639C23.9359 25.688 24.7681 25.0067 25.3949 24.1199C26.0434 23.2115 26.3676 22.1409 26.3676 20.908V20.7783H19.4292V17.0473H30.4528V28.8177C30.4528 29.7531 29.6956 30.5113 28.7615 30.5113H26.4649V28.1275C25.716 28.8962 24.8514 29.507 23.871 29.9598C22.4877 30.587 21.0395 30.9006 19.5264 30.9006Z" fill="#222222"/>
<path d="M31.894 30.5113V12.8621H35.882V15.3463C36.2781 14.4775 36.8076 13.8441 37.4707 13.446C38.3569 12.9269 39.416 12.6674 40.6481 12.6674H41.6856V16.4308H40.1618C38.9513 16.4308 37.9786 16.8093 37.2437 17.5664C36.5088 18.3017 36.1414 19.3399 36.1414 20.6809V28.8177C36.1414 29.7531 35.3842 30.5113 34.4501 30.5113H31.894Z" fill="#222222"/>
<path fill-rule="evenodd" clip-rule="evenodd" d="M44.4548 30.2842C45.3627 30.6951 46.4326 30.9006 47.6647 30.9006C48.6373 30.9006 49.5236 30.7708 50.3233 30.5113C51.1231 30.2301 51.8364 29.8408 52.4632 29.3433C52.7149 29.1349 52.9527 28.9073 53.1765 28.6605V30.5113H55.5056C56.4397 30.5113 57.1969 29.7531 57.1969 28.8177V18.7668C57.1969 17.5123 56.8835 16.42 56.2566 15.49C55.6514 14.5383 54.7976 13.8029 53.6953 13.2838C52.5929 12.7431 51.3176 12.4727 49.8694 12.4727C48.6806 12.4727 47.5782 12.6674 46.5623 13.0567C45.5464 13.446 44.6602 13.9868 43.9037 14.6789C43.1687 15.3494 42.6284 16.1497 42.2825 17.0797L45.7517 18.7668C46.076 17.9665 46.5839 17.3284 47.2756 16.8526C47.9889 16.3551 48.7995 16.1064 49.7073 16.1064C50.68 16.1064 51.4581 16.3659 52.0417 16.885C52.6469 17.3825 52.9495 18.0098 52.9495 18.7668V19.338L47.6971 20.1943C46.3137 20.4106 45.1681 20.7783 44.2603 21.2974C43.3525 21.8165 42.6824 22.4653 42.2501 23.244C41.8178 24.001 41.6017 24.8661 41.6017 25.8394C41.6017 26.856 41.8502 27.7536 42.3474 28.5322C42.8445 29.2893 43.547 29.8732 44.4548 30.2842ZM52.9495 22.586L48.5077 23.3413C47.6647 23.4927 47.0378 23.7631 46.6272 24.1524C46.2165 24.5417 46.0111 25.05 46.0111 25.6772C46.0111 26.2828 46.2381 26.7695 46.692 27.1372C47.1675 27.4832 47.7511 27.6563 48.4428 27.6563C49.329 27.6563 50.1072 27.4724 50.7772 27.1047C51.4689 26.7154 51.9985 26.1855 52.3659 25.515C52.755 24.8445 52.9495 24.1091 52.9495 23.3088V22.586Z" fill="#222222"/>
<path fill-rule="evenodd" clip-rule="evenodd" d="M58.2892 37V12.8621H62.2772V14.9449C62.8305 14.2528 63.5222 13.6991 64.3522 13.2838C65.3897 12.7431 66.5894 12.4727 67.9511 12.4727C69.6155 12.4727 71.1177 12.8837 72.4578 13.7056C73.798 14.5275 74.8571 15.6306 75.6353 17.0148C76.435 18.3991 76.8349 19.9564 76.8349 21.6867C76.8349 23.3954 76.4458 24.9527 75.6677 26.3585C74.8895 27.7644 73.8304 28.8783 72.4903 29.7002C71.1501 30.5005 69.6263 30.9006 67.9187 30.9006C66.6434 30.9006 65.4654 30.6519 64.3846 30.1544C63.6703 29.8043 63.0543 29.3558 62.5366 28.8089V35.3064C62.5366 36.2418 61.7793 37 60.8453 37H58.2892ZM67.4324 27.0074C68.405 27.0074 69.2696 26.7803 70.0261 26.3261C70.7827 25.8719 71.3663 25.2446 71.777 24.4444C72.2093 23.6441 72.4254 22.7249 72.4254 21.6867C72.4254 20.6485 72.2093 19.7401 71.777 18.9614C71.3663 18.1612 70.7827 17.5339 70.0261 17.0797C69.2696 16.6039 68.405 16.3659 67.4324 16.3659C66.5029 16.3659 65.6599 16.5931 64.9034 17.0473C64.1685 17.5015 63.5849 18.1395 63.1526 18.9614C62.7419 19.7617 62.5366 20.6701 62.5366 21.6867C62.5366 22.7249 62.7419 23.6441 63.1526 24.4444C63.5849 25.2446 64.1685 25.8719 64.9034 26.3261C65.6599 26.7803 66.5029 27.0074 67.4324 27.0074Z" fill="#222222"/>
<path fill-rule="evenodd" clip-rule="evenodd" d="M81.9661 29.6678C83.3279 30.4897 84.9166 30.9006 86.7323 30.9006C87.9427 30.9006 89.0451 30.7168 90.0394 30.3491C91.0553 29.9814 91.9307 29.4731 92.6656 28.8242C93.4005 28.1754 93.9409 27.4292 94.2867 26.5856L90.8499 24.8986C90.4608 25.5907 89.9205 26.1422 89.2288 26.5532C88.5587 26.9641 87.7374 27.1696 86.7647 27.1696C85.792 27.1696 84.9274 26.9425 84.1709 26.4883C83.436 26.0341 82.874 25.396 82.4849 24.5741C82.2594 24.0566 82.1194 23.4942 82.0649 22.8871H94.773C94.8595 22.6492 94.9136 22.368 94.9352 22.0436C94.9784 21.7191 95 21.4055 95 21.1027C95 19.9131 94.8055 18.81 94.4164 17.7935C94.0273 16.7553 93.4653 15.836 92.7304 15.0358C91.9955 14.2355 91.0985 13.6083 90.0394 13.154C89.0018 12.6998 87.7914 12.4727 86.408 12.4727C84.7653 12.4727 83.2739 12.8729 81.9337 13.6731C80.6152 14.4734 79.5669 15.5657 78.7887 16.9499C78.0322 18.3126 77.654 19.8807 77.654 21.6542C77.654 23.3629 78.0322 24.9202 78.7887 26.3261C79.5453 27.732 80.6044 28.8459 81.9661 29.6678ZM82.1524 19.6427C82.2214 19.2703 82.3214 18.9242 82.4525 18.6045C82.8199 17.7394 83.3495 17.0905 84.0412 16.6579C84.7329 16.2037 85.5218 15.9766 86.408 15.9766C87.3375 15.9766 88.1264 16.2037 88.7749 16.6579C89.445 17.1121 89.9205 17.7286 90.2015 18.5072C90.3398 18.8631 90.4262 19.2416 90.4606 19.6427H82.1524Z" fill="#222222"/>
</g>
</svg>
