<svg width="37" height="37" viewBox="0 0 37 37" fill="none" xmlns="http://www.w3.org/2000/svg">
<rect width="37" height="37" fill="#C4C4C4" fill-opacity="0.01"/>
<path fill-rule="evenodd" clip-rule="evenodd" d="M23.4515 3.64632C24.1013 3.4852 24.7812 3.39968 25.4811 3.39968C30.1068 3.39968 33.8566 7.1348 33.8566 11.7423C33.8566 12.4395 33.7707 13.1167 33.6089 13.764C34.6473 15.1533 35.2617 16.8755 35.2617 18.7407C35.2617 20.5867 34.6598 22.2927 33.6408 23.6745C33.782 24.2817 33.8566 24.9142 33.8566 25.5642C33.8566 30.1717 30.1068 33.9068 25.4811 33.9068C24.8287 33.9068 24.1936 33.8325 23.5841 33.6919C22.1968 34.7069 20.4841 35.3064 18.6309 35.3064C16.8585 35.3064 15.2146 34.7581 13.8611 33.8223C13.1959 33.9917 12.4988 34.0817 11.7806 34.0817C7.15498 34.0817 3.40518 30.3466 3.40518 25.7391C3.40518 25.0419 3.49104 24.3647 3.6528 23.7174C2.61448 22.3281 2 20.6059 2 18.7407C2 16.8755 2.61448 15.1533 3.6528 13.764C3.49104 13.1167 3.40518 12.4395 3.40518 11.7423C3.40518 7.1348 7.15498 3.39968 11.7806 3.39968C12.3852 3.39968 12.9748 3.4635 13.5431 3.58473C14.923 2.58782 16.6202 2 18.4552 2C20.3277 2 22.0567 2.61208 23.4515 3.64632ZM13.6454 11.0579C13.6107 10.8245 13.5928 10.5856 13.5928 10.3426C13.5928 10.3356 13.5928 10.3286 13.5928 10.3215C13.5928 10.3161 13.5929 10.3107 13.5929 10.3053L13.5931 10.283C13.5929 10.2631 13.5928 10.2431 13.5928 10.2231C13.5928 7.51755 15.7947 5.32424 18.5109 5.32424C21.2271 5.32424 23.4291 7.51755 23.4291 10.2231C23.4291 10.6993 23.3609 11.1595 23.2337 11.5948C21.9129 10.7277 20.331 10.2231 18.6309 10.2231C16.8447 10.2231 15.1891 10.7801 13.8296 11.7292C13.7599 11.5143 13.7048 11.293 13.6654 11.0663L13.6454 11.0579ZM16.0455 14.463C15.4141 14.8585 14.8805 15.3947 14.4889 16.0273C14.032 16.7655 13.7684 17.6349 13.7684 18.5657C13.7684 19.5945 14.0904 20.5483 14.6395 21.3327C15.0691 21.9464 15.6376 22.4563 16.2997 22.8173C16.9918 23.1946 17.7862 23.4092 18.6309 23.4092C19.4275 23.4092 20.1794 23.2183 20.843 22.8801C21.5876 22.5005 22.2211 21.9352 22.6818 21.2456C23.1946 20.4782 23.4933 19.5567 23.4933 18.5657C23.4933 17.6713 23.2499 16.8335 22.8255 16.1145C22.4061 15.404 21.81 14.8094 21.0972 14.3907C20.3742 13.966 19.5311 13.7223 18.6309 13.7223C17.6808 13.7223 16.7944 13.9937 16.0455 14.463ZM25.6808 14.0599C26.5197 15.3594 27.0063 16.906 27.0063 18.5657C27.0063 20.3921 26.4171 22.0813 25.4178 23.4552C25.8977 23.6109 26.41 23.6951 26.942 23.6951C29.6582 23.6951 31.8602 21.5018 31.8602 18.7962C31.8602 16.0906 29.6582 13.8973 26.942 13.8973C26.9327 13.8973 26.9234 13.8973 26.9141 13.8974L26.9034 13.8973L26.8863 13.8973C26.5821 13.8973 26.2843 13.9251 25.9956 13.9784L25.9904 13.9889C25.886 14.0093 25.7828 14.033 25.6808 14.0599ZM23.1579 25.5859C21.8525 26.4228 20.2986 26.9084 18.6309 26.9084C16.88 26.9084 15.2546 26.3732 13.9105 25.4582C13.7052 25.9978 13.5928 26.583 13.5928 27.1943C13.5928 29.8999 15.7947 32.0932 18.5109 32.0932C20.8284 32.0932 22.7714 30.4966 23.292 28.3475C23.423 27.9091 23.4933 27.4446 23.4933 26.9638C23.4933 26.7571 23.4803 26.5533 23.4551 26.3533C23.4193 26.3373 23.3837 26.321 23.3482 26.3045C23.3027 26.058 23.2388 25.818 23.1579 25.5859ZM11.8647 23.4837C10.8528 22.1047 10.2555 20.4047 10.2555 18.5657C10.2555 16.8957 10.7481 15.3402 11.5966 14.0357C11.223 13.9452 10.8327 13.8973 10.4311 13.8973C10.4218 13.8973 10.4125 13.8973 10.4032 13.8974C10.3939 13.8973 10.3847 13.8973 10.3754 13.8973C9.45203 13.8973 8.58877 14.1537 7.85345 14.5989L7.86584 14.6157C6.82016 15.2537 6.03232 16.27 5.69432 17.4735L5.68404 17.4626C5.5725 17.8698 5.51296 18.2983 5.51296 18.7407L5.51299 18.7573L5.51304 18.7684C5.51299 18.7776 5.51296 18.7869 5.51296 18.7962C5.51296 21.5018 7.71489 23.6951 10.4311 23.6951C10.9298 23.6951 11.4112 23.6211 11.8647 23.4837ZM26.8306 10.3577L26.8306 10.3426C26.8306 9.13 26.5709 7.97781 26.1038 6.93823C28.2913 7.21676 30.0245 8.94311 30.3041 11.122C29.2604 10.6568 28.1037 10.3981 26.8863 10.3981C26.8677 10.3981 26.8491 10.3982 26.8305 10.3983L26.8306 10.3738L26.8306 10.3577ZM10.7783 7.00189C8.77233 7.42059 7.22089 9.07076 6.95764 11.122C7.91655 10.6946 8.97089 10.4415 10.08 10.4032C10.0799 10.383 10.0798 10.3628 10.0798 10.3426C10.0798 9.1547 10.3291 8.02477 10.7783 7.00189ZM30.2763 26.3717C29.2741 26.8141 28.1684 27.0663 27.0055 27.0825C26.9892 28.2409 26.736 29.3422 26.2919 30.3405C28.3278 30.0002 29.9346 28.3996 30.2763 26.3717ZM11.0567 30.5292C8.91711 30.2111 7.23294 28.5046 6.95764 26.3594C7.96721 26.8094 9.08257 27.0662 10.2563 27.0825C10.2735 28.3144 10.5588 29.4817 11.0567 30.5292Z" fill="#222222"/>
</svg>
