<svg width="19" height="37" viewBox="0 0 19 37" fill="none" xmlns="http://www.w3.org/2000/svg">
<mask id="mask0_534_15" style="mask-type:alpha" maskUnits="userSpaceOnUse" x="0" y="0" width="19" height="37">
<rect width="19" height="37" fill="#C4C4C4"/>
</mask>
<g mask="url(#mask0_534_15)">
<rect x="-58" width="95" height="37" fill="#C4C4C4" fill-opacity="0.01"/>
<path d="M-38.4736 30.9006C-40.2028 30.9006 -41.8023 30.587 -43.2721 29.9598C-44.7419 29.3325 -46.0388 28.4565 -47.1628 27.3318C-48.2652 26.2071 -49.1298 24.8878 -49.7566 23.3737C-50.3618 21.8597 -50.6644 20.2051 -50.6644 18.4099C-50.6644 16.6147 -50.3618 14.9601 -49.7566 13.446C-49.1514 11.9104 -48.3084 10.591 -47.2276 9.48794C-46.1253 8.36323 -44.85 7.49807 -43.4018 6.89246C-41.932 6.26522 -40.3217 5.9516 -38.5708 5.9516C-36.8416 5.9516 -35.2962 6.24359 -33.9344 6.82757C-32.5511 7.41156 -31.3838 8.1902 -30.4328 9.1635C-29.4817 10.1152 -28.8009 11.1642 -28.3902 12.3105L-32.3133 14.1922C-32.7672 12.9378 -33.5453 11.9212 -34.6477 11.1426C-35.7285 10.3639 -37.0362 9.97459 -38.5708 9.97459C-40.0839 9.97459 -41.424 10.3315 -42.5912 11.0452C-43.7368 11.759 -44.6338 12.7431 -45.2823 13.9976C-45.9091 15.2521 -46.2225 16.7228 -46.2225 18.4099C-46.2225 20.0969 -45.8983 21.5785 -45.2499 22.8546C-44.5798 24.1091 -43.6612 25.0932 -42.494 25.807C-41.3267 26.5208 -39.9866 26.8776 -38.4736 26.8776C-37.2631 26.8776 -36.1391 26.6397 -35.1016 26.1639C-34.0641 25.688 -33.2319 25.0067 -32.6051 24.1199C-31.9566 23.2115 -31.6324 22.1409 -31.6324 20.908V20.7783H-38.5708V17.0473H-27.5472V28.8177C-27.5472 29.7531 -28.3044 30.5113 -29.2385 30.5113H-31.5351V28.1275C-32.284 28.8962 -33.1486 29.507 -34.129 29.9598C-35.5123 30.587 -36.9605 30.9006 -38.4736 30.9006Z" fill="#222222"/>
<path d="M-26.106 30.5113V12.8621H-22.118V15.3463C-21.7219 14.4775 -21.1924 13.8441 -20.5293 13.446C-19.6431 12.9269 -18.584 12.6674 -17.3519 12.6674H-16.3144V16.4308H-17.8382C-19.0487 16.4308 -20.0214 16.8093 -20.7563 17.5664C-21.4912 18.3017 -21.8586 19.3399 -21.8586 20.6809V28.8177C-21.8586 29.7531 -22.6158 30.5113 -23.5499 30.5113H-26.106Z" fill="#222222"/>
<path fill-rule="evenodd" clip-rule="evenodd" d="M-13.5452 30.2842C-12.6373 30.6951 -11.5674 30.9006 -10.3353 30.9006C-9.36265 30.9006 -8.47643 30.7708 -7.67668 30.5113C-6.87693 30.2301 -6.16363 29.8408 -5.5368 29.3433C-5.28509 29.1349 -5.04733 28.9073 -4.82349 28.6605V30.5113H-2.49438C-1.56031 30.5113 -0.803101 29.7531 -0.803101 28.8177V18.7668C-0.803101 17.5123 -1.11651 16.42 -1.74336 15.49C-2.34858 14.5383 -3.20238 13.8029 -4.30474 13.2838C-5.4071 12.7431 -6.68239 12.4727 -8.1306 12.4727C-9.31942 12.4727 -10.4218 12.6674 -11.4377 13.0567C-12.4536 13.446 -13.3398 13.9868 -14.0963 14.6789C-14.8313 15.3494 -15.3716 16.1497 -15.7175 17.0797L-12.2483 18.7668C-11.924 17.9665 -11.4161 17.3284 -10.7244 16.8526C-10.0111 16.3551 -9.20053 16.1064 -8.2927 16.1064C-7.32003 16.1064 -6.54189 16.3659 -5.95829 16.885C-5.35307 17.3825 -5.05046 18.0098 -5.05046 18.7668V19.338L-10.3029 20.1943C-11.6863 20.4106 -12.8319 20.7783 -13.7397 21.2974C-14.6475 21.8165 -15.3176 22.4653 -15.7499 23.244C-16.1822 24.001 -16.3983 24.8661 -16.3983 25.8394C-16.3983 26.856 -16.1498 27.7536 -15.6526 28.5322C-15.1555 29.2893 -14.453 29.8732 -13.5452 30.2842ZM-5.05046 22.586L-9.49234 23.3413C-10.3353 23.4927 -10.9622 23.7631 -11.3728 24.1524C-11.7835 24.5417 -11.9889 25.05 -11.9889 25.6772C-11.9889 26.2828 -11.7619 26.7695 -11.308 27.1372C-10.8325 27.4832 -10.2489 27.6563 -9.55719 27.6563C-8.67097 27.6563 -7.89284 27.4724 -7.22277 27.1047C-6.53108 26.7154 -6.00153 26.1855 -5.63407 25.515C-5.24499 24.8445 -5.05046 24.1091 -5.05046 23.3088V22.586Z" fill="#222222"/>
<path fill-rule="evenodd" clip-rule="evenodd" d="M0.289215 37V12.8621H4.27718V14.9449C4.83053 14.2528 5.5222 13.6991 6.35222 13.2838C7.38974 12.7431 8.58937 12.4727 9.95111 12.4727C11.6155 12.4727 13.1177 12.8837 14.4578 13.7056C15.798 14.5275 16.8571 15.6306 17.6353 17.0148C18.435 18.3991 18.8349 19.9564 18.8349 21.6867C18.8349 23.3954 18.4458 24.9527 17.6677 26.3585C16.8895 27.7644 15.8304 28.8783 14.4903 29.7002C13.1501 30.5005 11.6263 30.9006 9.91869 30.9006C8.64342 30.9006 7.46538 30.6519 6.38464 30.1544C5.67028 29.8043 5.05425 29.3558 4.53655 28.8089V35.3064C4.53655 36.2418 3.77934 37 2.84528 37H0.289215ZM9.43236 27.0074C10.405 27.0074 11.2696 26.7803 12.0261 26.3261C12.7827 25.8719 13.3663 25.2446 13.777 24.4444C14.2093 23.6441 14.4254 22.7249 14.4254 21.6867C14.4254 20.6485 14.2093 19.7401 13.777 18.9614C13.3663 18.1612 12.7827 17.5339 12.0261 17.0797C11.2696 16.6039 10.405 16.3659 9.43236 16.3659C8.50292 16.3659 7.65993 16.5931 6.9034 17.0473C6.16849 17.5015 5.58489 18.1395 5.15257 18.9614C4.7419 19.7617 4.53655 20.6701 4.53655 21.6867C4.53655 22.7249 4.7419 23.6441 5.15257 24.4444C5.58489 25.2446 6.16849 25.8719 6.9034 26.3261C7.65993 26.7803 8.50292 27.0074 9.43236 27.0074Z" fill="#222222"/>
<path fill-rule="evenodd" clip-rule="evenodd" d="M23.9661 29.6678C25.3279 30.4897 26.9166 30.9006 28.7323 30.9006C29.9427 30.9006 31.0451 30.7168 32.0394 30.3491C33.0553 29.9814 33.9307 29.4731 34.6656 28.8242C35.4005 28.1754 35.9409 27.4292 36.2867 26.5856L32.8499 24.8986C32.4608 25.5907 31.9205 26.1422 31.2288 26.5532C30.5587 26.9641 29.7374 27.1696 28.7647 27.1696C27.792 27.1696 26.9274 26.9425 26.1709 26.4883C25.436 26.0341 24.874 25.396 24.4849 24.5741C24.2594 24.0566 24.1194 23.4942 24.0649 22.8871H36.773C36.8595 22.6492 36.9136 22.368 36.9352 22.0436C36.9784 21.7191 37 21.4055 37 21.1027C37 19.9131 36.8055 18.81 36.4164 17.7935C36.0273 16.7553 35.4653 15.836 34.7304 15.0358C33.9955 14.2355 33.0985 13.6083 32.0394 13.154C31.0018 12.6998 29.7914 12.4727 28.408 12.4727C26.7653 12.4727 25.2739 12.8729 23.9337 13.6731C22.6152 14.4734 21.5669 15.5657 20.7887 16.9499C20.0322 18.3126 19.654 19.8807 19.654 21.6542C19.654 23.3629 20.0322 24.9202 20.7887 26.3261C21.5453 27.732 22.6044 28.8459 23.9661 29.6678ZM24.1524 19.6427C24.2214 19.2703 24.3214 18.9242 24.4525 18.6045C24.8199 17.7394 25.3495 17.0905 26.0412 16.6579C26.7329 16.2037 27.5218 15.9766 28.408 15.9766C29.3375 15.9766 30.1264 16.2037 30.7749 16.6579C31.445 17.1121 31.9205 17.7286 32.2015 18.5072C32.3398 18.8631 32.4262 19.2416 32.4606 19.6427H24.1524Z" fill="#222222"/>
</g>
</svg>
