<svg width="16" height="37" viewBox="0 0 16 37" fill="none" xmlns="http://www.w3.org/2000/svg">
<mask id="mask0_534_11" style="mask-type:alpha" maskUnits="userSpaceOnUse" x="0" y="0" width="16" height="37">
<rect width="16" height="37" fill="#C4C4C4"/>
</mask>
<g mask="url(#mask0_534_11)">
<rect x="-42" width="95" height="37" fill="#C4C4C4" fill-opacity="0.01"/>
<path d="M-22.4736 30.9006C-24.2028 30.9006 -25.8023 30.587 -27.2721 29.9598C-28.7419 29.3325 -30.0388 28.4565 -31.1628 27.3318C-32.2652 26.2071 -33.1298 24.8878 -33.7566 23.3737C-34.3618 21.8597 -34.6644 20.2051 -34.6644 18.4099C-34.6644 16.6147 -34.3618 14.9601 -33.7566 13.446C-33.1514 11.9104 -32.3084 10.591 -31.2276 9.48794C-30.1253 8.36323 -28.85 7.49807 -27.4018 6.89246C-25.932 6.26522 -24.3217 5.9516 -22.5708 5.9516C-20.8416 5.9516 -19.2962 6.24359 -17.9344 6.82757C-16.5511 7.41156 -15.3838 8.1902 -14.4328 9.1635C-13.4817 10.1152 -12.8009 11.1642 -12.3902 12.3105L-16.3133 14.1922C-16.7672 12.9378 -17.5453 11.9212 -18.6477 11.1426C-19.7285 10.3639 -21.0362 9.97459 -22.5708 9.97459C-24.0839 9.97459 -25.424 10.3315 -26.5912 11.0452C-27.7368 11.759 -28.6338 12.7431 -29.2823 13.9976C-29.9091 15.2521 -30.2225 16.7228 -30.2225 18.4099C-30.2225 20.0969 -29.8983 21.5785 -29.2499 22.8546C-28.5798 24.1091 -27.6612 25.0932 -26.494 25.807C-25.3267 26.5208 -23.9866 26.8776 -22.4736 26.8776C-21.2631 26.8776 -20.1391 26.6397 -19.1016 26.1639C-18.0641 25.688 -17.2319 25.0067 -16.6051 24.1199C-15.9566 23.2115 -15.6324 22.1409 -15.6324 20.908V20.7783H-22.5708V17.0473H-11.5472V28.8177C-11.5472 29.7531 -12.3044 30.5113 -13.2385 30.5113H-15.5351V28.1275C-16.284 28.8962 -17.1486 29.507 -18.129 29.9598C-19.5123 30.587 -20.9605 30.9006 -22.4736 30.9006Z" fill="#222222"/>
<path d="M-10.106 30.5113V12.8621H-6.11803V15.3463C-5.72193 14.4775 -5.19237 13.8441 -4.52933 13.446C-3.6431 12.9269 -2.58398 12.6674 -1.35191 12.6674H-0.314392V16.4308H-1.83825C-3.04869 16.4308 -4.02136 16.8093 -4.75627 17.5664C-5.49118 18.3017 -5.85864 19.3399 -5.85864 20.6809V28.8177C-5.85864 29.7531 -6.61584 30.5113 -7.54991 30.5113H-10.106Z" fill="#222222"/>
<path fill-rule="evenodd" clip-rule="evenodd" d="M2.45485 30.2842C3.36268 30.6951 4.43262 30.9006 5.66467 30.9006C6.63735 30.9006 7.52357 30.7708 8.32332 30.5113C9.12307 30.2301 9.83637 29.8408 10.4632 29.3433C10.7149 29.1349 10.9527 28.9073 11.1765 28.6605V30.5113H13.5056C14.4397 30.5113 15.1969 29.7531 15.1969 28.8177V18.7668C15.1969 17.5123 14.8835 16.42 14.2566 15.49C13.6514 14.5383 12.7976 13.8029 11.6953 13.2838C10.5929 12.7431 9.31761 12.4727 7.8694 12.4727C6.68058 12.4727 5.57821 12.6674 4.5623 13.0567C3.54641 13.446 2.66019 13.9868 1.90366 14.6789C1.16875 15.3494 0.628385 16.1497 0.282539 17.0797L3.75175 18.7668C4.07597 17.9665 4.58393 17.3284 5.2756 16.8526C5.9889 16.3551 6.79947 16.1064 7.7073 16.1064C8.67997 16.1064 9.45811 16.3659 10.0417 16.885C10.6469 17.3825 10.9495 18.0098 10.9495 18.7668V19.338L5.6971 20.1943C4.31373 20.4106 3.16813 20.7783 2.2603 21.2974C1.35248 21.8165 0.682421 22.4653 0.250122 23.244C-0.182176 24.001 -0.398331 24.8661 -0.398331 25.8394C-0.398331 26.856 -0.149761 27.7536 0.347382 28.5322C0.844524 29.2893 1.54702 29.8732 2.45485 30.2842ZM10.9495 22.586L6.50766 23.3413C5.66467 23.4927 5.03784 23.7631 4.62715 24.1524C4.21648 24.5417 4.01112 25.05 4.01112 25.6772C4.01112 26.2828 4.23809 26.7695 4.69199 27.1372C5.16753 27.4832 5.75114 27.6563 6.44281 27.6563C7.32903 27.6563 8.10716 27.4724 8.77723 27.1047C9.46892 26.7154 9.99847 26.1855 10.3659 25.515C10.755 24.8445 10.9495 24.1091 10.9495 23.3088V22.586Z" fill="#222222"/>
<path fill-rule="evenodd" clip-rule="evenodd" d="M16.2892 37V12.8621H20.2772V14.9449C20.8305 14.2528 21.5222 13.6991 22.3522 13.2838C23.3897 12.7431 24.5894 12.4727 25.9511 12.4727C27.6155 12.4727 29.1177 12.8837 30.4578 13.7056C31.798 14.5275 32.8571 15.6306 33.6353 17.0148C34.435 18.3991 34.8349 19.9564 34.8349 21.6867C34.8349 23.3954 34.4458 24.9527 33.6677 26.3585C32.8895 27.7644 31.8304 28.8783 30.4903 29.7002C29.1501 30.5005 27.6263 30.9006 25.9187 30.9006C24.6434 30.9006 23.4654 30.6519 22.3846 30.1544C21.6703 29.8043 21.0543 29.3558 20.5366 28.8089V35.3064C20.5366 36.2418 19.7793 37 18.8453 37H16.2892ZM25.4324 27.0074C26.405 27.0074 27.2696 26.7803 28.0261 26.3261C28.7827 25.8719 29.3663 25.2446 29.777 24.4444C30.2093 23.6441 30.4254 22.7249 30.4254 21.6867C30.4254 20.6485 30.2093 19.7401 29.777 18.9614C29.3663 18.1612 28.7827 17.5339 28.0261 17.0797C27.2696 16.6039 26.405 16.3659 25.4324 16.3659C24.5029 16.3659 23.6599 16.5931 22.9034 17.0473C22.1685 17.5015 21.5849 18.1395 21.1526 18.9614C20.7419 19.7617 20.5366 20.6701 20.5366 21.6867C20.5366 22.7249 20.7419 23.6441 21.1526 24.4444C21.5849 25.2446 22.1685 25.8719 22.9034 26.3261C23.6599 26.7803 24.5029 27.0074 25.4324 27.0074Z" fill="#222222"/>
<path fill-rule="evenodd" clip-rule="evenodd" d="M39.9661 29.6678C41.3279 30.4897 42.9166 30.9006 44.7323 30.9006C45.9427 30.9006 47.0451 30.7168 48.0394 30.3491C49.0553 29.9814 49.9307 29.4731 50.6656 28.8242C51.4005 28.1754 51.9409 27.4292 52.2867 26.5856L48.8499 24.8986C48.4608 25.5907 47.9205 26.1422 47.2288 26.5532C46.5587 26.9641 45.7374 27.1696 44.7647 27.1696C43.792 27.1696 42.9274 26.9425 42.1709 26.4883C41.436 26.0341 40.874 25.396 40.4849 24.5741C40.2594 24.0566 40.1194 23.4942 40.0649 22.8871H52.773C52.8595 22.6492 52.9136 22.368 52.9352 22.0436C52.9784 21.7191 53 21.4055 53 21.1027C53 19.9131 52.8055 18.81 52.4164 17.7935C52.0273 16.7553 51.4653 15.836 50.7304 15.0358C49.9955 14.2355 49.0985 13.6083 48.0394 13.154C47.0018 12.6998 45.7914 12.4727 44.408 12.4727C42.7653 12.4727 41.2739 12.8729 39.9337 13.6731C38.6152 14.4734 37.5669 15.5657 36.7887 16.9499C36.0322 18.3126 35.654 19.8807 35.654 21.6542C35.654 23.3629 36.0322 24.9202 36.7887 26.3261C37.5453 27.732 38.6044 28.8459 39.9661 29.6678ZM40.1524 19.6427C40.2214 19.2703 40.3214 18.9242 40.4525 18.6045C40.8199 17.7394 41.3495 17.0905 42.0412 16.6579C42.7329 16.2037 43.5218 15.9766 44.408 15.9766C45.3375 15.9766 46.1264 16.2037 46.7749 16.6579C47.445 17.1121 47.9205 17.7286 48.2015 18.5072C48.3398 18.8631 48.4262 19.2416 48.4606 19.6427H40.1524Z" fill="#222222"/>
</g>
</svg>
