<svg width="126" height="35" viewBox="0 0 126 35" fill="none" xmlns="http://www.w3.org/2000/svg">
<path fill-rule="evenodd" clip-rule="evenodd" d="M21.4515 1.64632C22.1013 1.4852 22.7812 1.39968 23.4811 1.39968C28.1068 1.39968 31.8566 5.1348 31.8566 9.7423C31.8566 10.4395 31.7707 11.1167 31.6089 11.764C32.6473 13.1533 33.2617 14.8755 33.2617 16.7407C33.2617 18.5867 32.6598 20.2927 31.6408 21.6745C31.782 22.2817 31.8566 22.9142 31.8566 23.5642C31.8566 28.1717 28.1068 31.9068 23.4811 31.9068C22.8287 31.9068 22.1936 31.8325 21.5841 31.6919C20.1968 32.7069 18.4841 33.3064 16.6309 33.3064C14.8585 33.3064 13.2146 32.7581 11.8611 31.8223C11.1959 31.9917 10.4988 32.0817 9.7806 32.0817C5.15498 32.0817 1.40518 28.3466 1.40518 23.7391C1.40518 23.0419 1.49104 22.3647 1.6528 21.7174C0.614482 20.3281 0 18.6059 0 16.7407C0 14.8755 0.614482 13.1533 1.6528 11.764C1.49104 11.1167 1.40518 10.4395 1.40518 9.7423C1.40518 5.1348 5.15498 1.39968 9.7806 1.39968C10.3852 1.39968 10.9748 1.4635 11.5431 1.58473C12.923 0.587819 14.6202 0 16.4552 0C18.3277 0 20.0567 0.612076 21.4515 1.64632ZM11.6454 9.05788C11.6107 8.82447 11.5928 8.58563 11.5928 8.34262C11.5928 8.33558 11.5928 8.32855 11.5928 8.32153C11.5928 8.3161 11.5929 8.31067 11.5929 8.30525L11.5931 8.28304C11.5929 8.2631 11.5928 8.24313 11.5928 8.22313C11.5928 5.51755 13.7947 3.32424 16.5109 3.32424C19.2271 3.32424 21.4291 5.51755 21.4291 8.22313C21.4291 8.69926 21.3609 9.15953 21.2337 9.59477C19.9129 8.72773 18.331 8.22313 16.6309 8.22313C14.8447 8.22313 13.1891 8.78009 11.8296 9.72917C11.7599 9.51433 11.7048 9.29301 11.6654 9.06634L11.6454 9.05788ZM14.0455 12.463C13.4141 12.8585 12.8805 13.3947 12.4889 14.0273C12.032 14.7655 11.7684 15.6349 11.7684 16.5657C11.7684 17.5945 12.0904 18.5483 12.6395 19.3327C13.0691 19.9464 13.6376 20.4563 14.2997 20.8173C14.9918 21.1946 15.7862 21.4092 16.6309 21.4092C17.4275 21.4092 18.1794 21.2183 18.843 20.8801C19.5876 20.5005 20.2211 19.9352 20.6818 19.2456C21.1946 18.4782 21.4933 17.5567 21.4933 16.5657C21.4933 15.6713 21.2499 14.8335 20.8255 14.1145C20.4061 13.404 19.81 12.8094 19.0972 12.3907C18.3742 11.966 17.5311 11.7223 16.6309 11.7223C15.6808 11.7223 14.7944 11.9937 14.0455 12.463ZM23.6808 12.0599C24.5197 13.3594 25.0063 14.906 25.0063 16.5657C25.0063 18.3921 24.4171 20.0813 23.4178 21.4552C23.8977 21.6109 24.41 21.6951 24.942 21.6951C27.6582 21.6951 29.8602 19.5018 29.8602 16.7962C29.8602 14.0906 27.6582 11.8973 24.942 11.8973C24.9327 11.8973 24.9234 11.8973 24.9141 11.8974L24.9034 11.8973L24.8863 11.8973C24.5821 11.8973 24.2843 11.9251 23.9956 11.9784L23.9904 11.9889C23.886 12.0093 23.7828 12.033 23.6808 12.0599ZM21.1579 23.5859C19.8525 24.4228 18.2986 24.9084 16.6309 24.9084C14.88 24.9084 13.2546 24.3732 11.9105 23.4582C11.7052 23.9978 11.5928 24.583 11.5928 25.1943C11.5928 27.8999 13.7947 30.0932 16.5109 30.0932C18.8284 30.0932 20.7714 28.4966 21.292 26.3475C21.423 25.9091 21.4933 25.4446 21.4933 24.9638C21.4933 24.7571 21.4803 24.5533 21.4551 24.3533C21.4193 24.3373 21.3837 24.321 21.3481 24.3045C21.3027 24.058 21.2388 23.818 21.1579 23.5859ZM9.86473 21.4837C8.85279 20.1047 8.25546 18.4047 8.25546 16.5657C8.25546 14.8957 8.74813 13.3402 9.5966 12.0357C9.22298 11.9452 8.83266 11.8973 8.43111 11.8973C8.42179 11.8973 8.41248 11.8973 8.40318 11.8974C8.39393 11.8973 8.38468 11.8973 8.37541 11.8973C7.45203 11.8973 6.58877 12.1537 5.85345 12.5989L5.86584 12.6157C4.82016 13.2537 4.03232 14.27 3.69432 15.4735L3.68404 15.4626C3.5725 15.8698 3.51296 16.2983 3.51296 16.7407L3.51299 16.7573L3.51304 16.7684C3.51299 16.7776 3.51296 16.7869 3.51296 16.7962C3.51296 19.5018 5.71489 21.6951 8.43111 21.6951C8.9298 21.6951 9.41115 21.6211 9.86473 21.4837ZM24.8306 8.35766L24.8306 8.34262C24.8306 7.13 24.5709 5.97781 24.1038 4.93823C26.2913 5.21676 28.0245 6.94311 28.3041 9.12205C27.2604 8.6568 26.1037 8.39809 24.8863 8.39809C24.8677 8.39809 24.8491 8.39815 24.8305 8.39827L24.8306 8.37385L24.8306 8.35766ZM8.77833 5.00189C6.77233 5.42059 5.22089 7.07076 4.95764 9.12205C5.91655 8.69459 6.97089 8.44148 8.08003 8.40318C8.07988 8.38301 8.07981 8.36282 8.07981 8.34262C8.07981 7.1547 8.32907 6.02477 8.77833 5.00189ZM28.2763 24.3717C27.2741 24.8141 26.1684 25.0663 25.0055 25.0825C24.9892 26.2409 24.736 27.3422 24.2919 28.3405C26.3278 28.0002 27.9346 26.3996 28.2763 24.3717ZM9.05667 28.5292C6.91711 28.2111 5.23294 26.5046 4.95764 24.3594C5.96721 24.8094 7.08257 25.0662 8.25629 25.0825C8.27353 26.3144 8.55882 27.4817 9.05667 28.5292Z" fill="black"/>
<path d="M50.5264 28.9006C48.7972 28.9006 47.1977 28.587 45.7279 27.9598C44.2581 27.3325 42.9612 26.4566 41.8372 25.3318C40.7348 24.2071 39.8702 22.8878 39.2434 21.3737C38.6382 19.8597 38.3356 18.2051 38.3356 16.4099C38.3356 14.6147 38.6382 12.9601 39.2434 11.4461C39.8486 9.91039 40.6916 8.59102 41.7724 7.48795C42.8747 6.36324 44.15 5.49808 45.5982 4.89248C47.068 4.26523 48.6784 3.95161 50.4292 3.95161C52.1584 3.95161 53.7038 4.2436 55.0656 4.82759C56.4489 5.41157 57.6162 6.19021 58.5672 7.16351C59.5183 8.11519 60.1991 9.1642 60.6098 10.3105L56.6867 12.1923C56.2328 10.9378 55.4547 9.9212 54.3523 9.14257C53.2715 8.36392 51.9638 7.9746 50.4292 7.9746C48.9161 7.9746 47.576 8.33148 46.4088 9.04524C45.2632 9.75899 44.3662 10.7431 43.7177 11.9976C43.0909 13.2521 42.7775 14.7228 42.7775 16.4099C42.7775 18.097 43.1017 19.5785 43.7501 20.8547C44.4202 22.1091 45.3388 23.0933 46.506 23.807C47.6733 24.5208 49.0134 24.8776 50.5264 24.8776C51.7369 24.8776 52.8609 24.6397 53.8984 24.1639C54.9359 23.688 55.7681 23.0067 56.3949 22.1199C57.0434 21.2115 57.3676 20.1409 57.3676 18.908V18.7783H50.4292V15.0473H61.4528V26.8178C61.4528 27.7531 60.6956 28.5113 59.7615 28.5113H57.4649V26.1275C56.716 26.8963 55.8514 27.507 54.871 27.9598C53.4877 28.587 52.0395 28.9006 50.5264 28.9006Z" fill="black"/>
<path d="M62.894 28.5113V10.8621H66.882V13.3463C67.2781 12.4775 67.8076 11.8441 68.4707 11.4461C69.3569 10.927 70.416 10.6674 71.6481 10.6674H72.6856V14.4308H71.1618C69.9513 14.4308 68.9786 14.8094 68.2437 15.5664C67.5088 16.3018 67.1414 17.3399 67.1414 18.6809V26.8178C67.1414 27.7531 66.3842 28.5113 65.4501 28.5113H62.894Z" fill="black"/>
<path fill-rule="evenodd" clip-rule="evenodd" d="M75.4549 28.2842C76.3627 28.6952 77.4326 28.9006 78.6647 28.9006C79.6373 28.9006 80.5236 28.7709 81.3233 28.5113C82.1231 28.2301 82.8364 27.8408 83.4632 27.3433C83.7149 27.1349 83.9527 26.9073 84.1765 26.6605V28.5113H86.5056C87.4397 28.5113 88.1969 27.7531 88.1969 26.8178V16.7668C88.1969 15.5123 87.8835 14.42 87.2566 13.49C86.6514 12.5383 85.7976 11.8029 84.6953 11.2838C83.5929 10.7431 82.3176 10.4727 80.8694 10.4727C79.6806 10.4727 78.5782 10.6674 77.5623 11.0567C76.5464 11.4461 75.6602 11.9868 74.9037 12.6789C74.1687 13.3494 73.6284 14.1497 73.2825 15.0797L76.7517 16.7668C77.076 15.9665 77.5839 15.3285 78.2756 14.8526C78.9889 14.3551 79.7995 14.1064 80.7073 14.1064C81.68 14.1064 82.4581 14.366 83.0417 14.8851C83.6469 15.3825 83.9495 16.0098 83.9495 16.7668V17.338L78.6971 18.1943C77.3137 18.4106 76.1681 18.7783 75.2603 19.2974C74.3525 19.8165 73.6824 20.4653 73.2501 21.244C72.8178 22.001 72.6017 22.8661 72.6017 23.8395C72.6017 24.856 72.8502 25.7536 73.3474 26.5323C73.8445 27.2893 74.547 27.8732 75.4549 28.2842ZM83.9495 20.586L79.5077 21.3413C78.6647 21.4927 78.0378 21.7631 77.6272 22.1524C77.2165 22.5417 77.0111 23.05 77.0111 23.6772C77.0111 24.2828 77.2381 24.7695 77.692 25.1372C78.1675 25.4832 78.7511 25.6563 79.4428 25.6563C80.329 25.6563 81.1072 25.4724 81.7772 25.1047C82.4689 24.7154 82.9985 24.1855 83.3659 23.515C83.755 22.8445 83.9495 22.1091 83.9495 21.3089V20.586Z" fill="black"/>
<path fill-rule="evenodd" clip-rule="evenodd" d="M89.2892 35V10.8621H93.2772V12.9449C93.8305 12.2528 94.5222 11.6991 95.3522 11.2838C96.3897 10.7431 97.5894 10.4727 98.9511 10.4727C100.615 10.4727 102.118 10.8837 103.458 11.7056C104.798 12.5275 105.857 13.6306 106.635 15.0148C107.435 16.3991 107.835 17.9564 107.835 19.6867C107.835 21.3954 107.446 22.9527 106.668 24.3585C105.89 25.7644 104.83 26.8783 103.49 27.7002C102.15 28.5005 100.626 28.9006 98.9187 28.9006C97.6434 28.9006 96.4654 28.6519 95.3846 28.1544C94.6703 27.8043 94.0543 27.3558 93.5365 26.8089V33.3064C93.5365 34.2418 92.7793 35 91.8453 35H89.2892ZM98.4324 25.0074C99.405 25.0074 100.27 24.7803 101.026 24.3261C101.783 23.8719 102.366 23.2446 102.777 22.4444C103.209 21.6441 103.425 20.7249 103.425 19.6867C103.425 18.6485 103.209 17.7401 102.777 16.9614C102.366 16.1612 101.783 15.5339 101.026 15.0797C100.27 14.6039 99.405 14.366 98.4324 14.366C97.5029 14.366 96.6599 14.5931 95.9034 15.0473C95.1685 15.5015 94.5849 16.1395 94.1526 16.9614C93.7419 17.7617 93.5365 18.6701 93.5365 19.6867C93.5365 20.7249 93.7419 21.6441 94.1526 22.4444C94.5849 23.2446 95.1685 23.8719 95.9034 24.3261C96.6599 24.7803 97.5029 25.0074 98.4324 25.0074Z" fill="black"/>
<path fill-rule="evenodd" clip-rule="evenodd" d="M112.966 27.6678C114.328 28.4897 115.917 28.9006 117.732 28.9006C118.943 28.9006 120.045 28.7168 121.039 28.3491C122.055 27.9814 122.931 27.4731 123.666 26.8242C124.4 26.1754 124.941 25.4292 125.287 24.5857L121.85 22.8986C121.461 23.5907 120.92 24.1423 120.229 24.5532C119.559 24.9642 118.737 25.1696 117.765 25.1696C116.792 25.1696 115.927 24.9425 115.171 24.4883C114.436 24.0341 113.874 23.3961 113.485 22.5742C113.259 22.0566 113.119 21.4942 113.065 20.8871H125.773C125.86 20.6492 125.914 20.368 125.935 20.0436C125.978 19.7191 126 19.4055 126 19.1027C126 17.9131 125.805 16.81 125.416 15.7935C125.027 14.7553 124.465 13.8361 123.73 13.0358C122.996 12.2355 122.098 11.6083 121.039 11.1541C120.002 10.6999 118.791 10.4727 117.408 10.4727C115.765 10.4727 114.274 10.8729 112.934 11.6732C111.615 12.4734 110.567 13.5657 109.789 14.9499C109.032 16.3126 108.654 17.8807 108.654 19.6542C108.654 21.3629 109.032 22.9202 109.789 24.3261C110.545 25.732 111.604 26.8459 112.966 27.6678ZM113.152 17.6427C113.221 17.2703 113.321 16.9242 113.452 16.6046C113.82 15.7394 114.35 15.0905 115.041 14.658C115.733 14.2037 116.522 13.9766 117.408 13.9766C118.337 13.9766 119.126 14.2037 119.775 14.658C120.445 15.1122 120.92 15.7286 121.201 16.5072C121.34 16.8631 121.426 17.2416 121.461 17.6427H113.152Z" fill="black"/>
</svg>
