<svg width="88" height="18" viewBox="0 0 88 18" fill="none" xmlns="http://www.w3.org/2000/svg">
<path d="M6.92049 0.902805C8.04553 -0.300935 9.95447 -0.300935 11.0795 0.902805C11.6406 1.50318 12.4338 1.83174 13.2551 1.80399C14.9018 1.74834 16.2517 3.09816 16.196 4.74485C16.1683 5.56615 16.4968 6.35937 17.0972 6.92049C18.3009 8.04553 18.3009 9.95447 17.0972 11.0795C16.4968 11.6406 16.1683 12.4338 16.196 13.2551C16.2517 14.9018 14.9018 16.2517 13.2551 16.196C12.4338 16.1683 11.6406 16.4968 11.0795 17.0972C9.95447 18.3009 8.04553 18.3009 6.92049 17.0972C6.35937 16.4968 5.56615 16.1683 4.74485 16.196C3.09816 16.2517 1.74834 14.9018 1.80399 13.2551C1.83174 12.4338 1.50318 11.6406 0.902805 11.0795C-0.300935 9.95447 -0.300935 8.04553 0.902805 6.92049C1.50318 6.35937 1.83174 5.56615 1.80399 4.74485C1.74834 3.09816 3.09816 1.74834 4.74485 1.80399C5.56615 1.83174 6.35937 1.50318 6.92049 0.902805Z" fill="url(#paint0_linear_562_9)"/>
<path d="M6.92049 0.902805C8.04553 -0.300935 9.95447 -0.300935 11.0795 0.902805C11.6406 1.50318 12.4338 1.83174 13.2551 1.80399C14.9018 1.74834 16.2517 3.09816 16.196 4.74485C16.1683 5.56615 16.4968 6.35937 17.0972 6.92049C18.3009 8.04553 18.3009 9.95447 17.0972 11.0795C16.4968 11.6406 16.1683 12.4338 16.196 13.2551C16.2517 14.9018 14.9018 16.2517 13.2551 16.196C12.4338 16.1683 11.6406 16.4968 11.0795 17.0972C9.95447 18.3009 8.04553 18.3009 6.92049 17.0972C6.35937 16.4968 5.56615 16.1683 4.74485 16.196C3.09816 16.2517 1.74834 14.9018 1.80399 13.2551C1.83174 12.4338 1.50318 11.6406 0.902805 11.0795C-0.300935 9.95447 -0.300935 8.04553 0.902805 6.92049C1.50318 6.35937 1.83174 5.56615 1.80399 4.74485C1.74834 3.09816 3.09816 1.74834 4.74485 1.80399C5.56615 1.83174 6.35937 1.50318 6.92049 0.902805Z" fill="url(#paint1_linear_562_9)" fill-opacity="0.3"/>
<path d="M9 2H81C84.866 2 88 5.13401 88 9C88 12.866 84.866 16 81 16H9V2Z" fill="url(#paint2_linear_562_9)"/>
<path d="M9 2H81C84.866 2 88 5.13401 88 9C88 12.866 84.866 16 81 16H9V2Z" fill="url(#paint3_linear_562_9)" fill-opacity="0.3"/>
<g filter="url(#filter0_d_562_9)">
<path d="M17.936 14V4.315H21.55C22.2087 4.315 22.7893 4.43633 23.292 4.679C23.8033 4.913 24.202 5.25967 24.488 5.719C24.774 6.16967 24.917 6.72 24.917 7.37C24.917 8.01133 24.7697 8.56167 24.475 9.021C24.189 9.47167 23.7947 9.81833 23.292 10.061C22.7893 10.3037 22.2087 10.425 21.55 10.425H19.704V14H17.936ZM19.704 8.865H21.576C21.8967 8.865 22.174 8.80433 22.408 8.683C22.642 8.553 22.824 8.37533 22.954 8.15C23.084 7.92467 23.149 7.66467 23.149 7.37C23.149 7.06667 23.084 6.80667 22.954 6.59C22.824 6.36467 22.642 6.19133 22.408 6.07C22.174 5.94 21.8967 5.875 21.576 5.875H19.704V8.865ZM26.2283 14L29.5693 4.315H31.8573L35.1983 14H33.2743L32.5853 11.92H28.8413L28.1393 14H26.2283ZM29.3483 10.36H32.0783L30.4663 5.537H30.9603L29.3483 10.36ZM37.7062 14V4.315H41.3072C41.9658 4.315 42.5465 4.43633 43.0492 4.679C43.5605 4.913 43.9592 5.25967 44.2452 5.719C44.5312 6.16967 44.6742 6.72 44.6742 7.37C44.6742 8.03733 44.5138 8.605 44.1932 9.073C43.8812 9.541 43.4565 9.88767 42.9192 10.113L45.1422 14H43.1402L40.7612 9.749L41.9052 10.425H39.4742V14H37.7062ZM39.4742 8.865H41.3332C41.6538 8.865 41.9312 8.80433 42.1652 8.683C42.3992 8.553 42.5812 8.37533 42.7112 8.15C42.8412 7.92467 42.9062 7.66467 42.9062 7.37C42.9062 7.06667 42.8412 6.80667 42.7112 6.59C42.5812 6.36467 42.3992 6.19133 42.1652 6.07C41.9312 5.94 41.6538 5.875 41.3332 5.875H39.4742V8.865ZM49.193 14V5.875H46.684V4.315H53.444V5.875H50.974V14H49.193ZM55.9529 14V4.315H57.3309L62.6609 11.491L61.9459 11.634V4.315H63.7139V14H62.3229L57.0709 6.772L57.7209 6.629V14H55.9529ZM67.0186 14V4.315H73.4536V5.875H68.7866V8.358H73.1936V9.918H68.7866V12.44H73.4536V14H67.0186ZM76.1801 14V4.315H79.7811C80.4397 4.315 81.0204 4.43633 81.5231 4.679C82.0344 4.913 82.4331 5.25967 82.7191 5.719C83.0051 6.16967 83.1481 6.72 83.1481 7.37C83.1481 8.03733 82.9877 8.605 82.6671 9.073C82.3551 9.541 81.9304 9.88767 81.3931 10.113L83.6161 14H81.6141L79.2351 9.749L80.3791 10.425H77.9481V14H76.1801ZM77.9481 8.865H79.8071C80.1277 8.865 80.4051 8.80433 80.6391 8.683C80.8731 8.553 81.0551 8.37533 81.1851 8.15C81.3151 7.92467 81.3801 7.66467 81.3801 7.37C81.3801 7.06667 81.3151 6.80667 81.1851 6.59C81.0551 6.36467 80.8731 6.19133 80.6391 6.07C80.4051 5.94 80.1277 5.875 79.8071 5.875H77.9481V8.865Z" fill="white"/>
</g>
<g filter="url(#filter1_d_562_9)">
<path d="M8.74837 11.9871C8.9039 11.8965 9.0961 11.8965 9.25163 11.9871L11.6949 13.41C12.0755 13.6316 12.536 13.2885 12.4325 12.8604L11.797 10.2319C11.7523 10.047 11.8164 9.85278 11.9623 9.73078L14.064 7.97399C14.4071 7.68715 14.2299 7.12853 13.7841 7.09204L10.9831 6.86274C10.8001 6.84775 10.64 6.73363 10.5661 6.56548L9.45779 4.04221C9.28272 3.64365 8.71728 3.64365 8.54222 4.04221L7.43388 6.56548C7.36003 6.73363 7.19993 6.84775 7.01689 6.86274L4.2159 7.09204C3.77014 7.12853 3.59286 7.68715 3.93602 7.97399L6.03768 9.73078C6.18363 9.85278 6.24771 10.047 6.20301 10.2319L5.56752 12.8604C5.46402 13.2885 5.92454 13.6316 6.30515 13.41L8.74837 11.9871Z" fill="white"/>
</g>
<defs>
<filter id="filter0_d_562_9" x="16.936" y="4.315" width="67.6801" height="11.685" filterUnits="userSpaceOnUse" color-interpolation-filters="sRGB">
<feFlood flood-opacity="0" result="BackgroundImageFix"/>
<feColorMatrix in="SourceAlpha" type="matrix" values="0 0 0 0 0 0 0 0 0 0 0 0 0 0 0 0 0 0 127 0" result="hardAlpha"/>
<feOffset dy="1"/>
<feGaussianBlur stdDeviation="0.5"/>
<feComposite in2="hardAlpha" operator="out"/>
<feColorMatrix type="matrix" values="0 0 0 0 0 0 0 0 0 0 0 0 0 0 0 0 0 0 0.5 0"/>
<feBlend mode="normal" in2="BackgroundImageFix" result="effect1_dropShadow_562_9"/>
<feBlend mode="normal" in="SourceGraphic" in2="effect1_dropShadow_562_9" result="shape"/>
</filter>
<filter id="filter1_d_562_9" x="2.756" y="3.74329" width="12.488" height="11.7361" filterUnits="userSpaceOnUse" color-interpolation-filters="sRGB">
<feFlood flood-opacity="0" result="BackgroundImageFix"/>
<feColorMatrix in="SourceAlpha" type="matrix" values="0 0 0 0 0 0 0 0 0 0 0 0 0 0 0 0 0 0 127 0" result="hardAlpha"/>
<feOffset dy="1"/>
<feGaussianBlur stdDeviation="0.5"/>
<feComposite in2="hardAlpha" operator="out"/>
<feColorMatrix type="matrix" values="0 0 0 0 0 0 0 0 0 0 0 0 0 0 0 0 0 0 0.5 0"/>
<feBlend mode="normal" in2="BackgroundImageFix" result="effect1_dropShadow_562_9"/>
<feBlend mode="normal" in="SourceGraphic" in2="effect1_dropShadow_562_9" result="shape"/>
</filter>
<linearGradient id="paint0_linear_562_9" x1="48.5" y1="2" x2="48.5" y2="16" gradientUnits="userSpaceOnUse">
<stop stop-color="#FFA800"/>
<stop offset="1" stop-color="#FF7A00"/>
</linearGradient>
<linearGradient id="paint1_linear_562_9" x1="14" y1="-5.99999" x2="69" y2="189" gradientUnits="userSpaceOnUse">
<stop offset="0.119692" stop-color="white" stop-opacity="0"/>
<stop offset="0.119792" stop-color="white"/>
<stop offset="1" stop-color="white" stop-opacity="0"/>
</linearGradient>
<linearGradient id="paint2_linear_562_9" x1="48.5" y1="2" x2="48.5" y2="16" gradientUnits="userSpaceOnUse">
<stop stop-color="#FFA800"/>
<stop offset="1" stop-color="#FF7A00"/>
</linearGradient>
<linearGradient id="paint3_linear_562_9" x1="14" y1="-5.99999" x2="69" y2="189" gradientUnits="userSpaceOnUse">
<stop offset="0.119692" stop-color="white" stop-opacity="0"/>
<stop offset="0.119792" stop-color="white"/>
<stop offset="1" stop-color="white" stop-opacity="0"/>
</linearGradient>
</defs>
</svg>
